<svg width="85" height="85" viewBox="0 0 85 85" fill="none" xmlns="http://www.w3.org/2000/svg">
<circle cx="42.5" cy="42.5" r="42.5" fill="#AB4E3C"/>
<path d="M35.6275 21.7976C34.2731 23.5414 29.6471 27.6738 24.9539 33.985C20.2605 40.2961 18.1374 45.3568 16.8542 47.0422C16.7227 45.1782 16.4609 43.9766 15.8756 43.773C15.3852 43.6024 14.6491 43.138 9 45.8258C15.4718 39.5073 26.5505 29.2839 31.3573 22.2059C31.3573 22.2059 29.5714 20.7802 29.1636 17.5305C28.8861 15.3193 30.1062 11.9181 32.2923 12.0016C34.6617 11.9226 36.6261 14.7318 38.0676 16.9528C42.3782 15.5629 45.2962 16.2286 47.6176 16.4815C47.0879 13.4655 48.1553 12.1944 50.903 12.3171C54.1755 12.463 56.0235 15.6157 55.8521 18.2752C54.0127 13.834 51.2257 13.7054 50.6776 14.3626C50.1297 15.0202 50.7952 17.2344 54.8494 18.768C58.7548 20.2454 61.1316 21.6867 62.2595 22.719C64.8162 25.0346 65.2047 26.7346 65.2876 28.3373C64.305 26.7837 62.725 27.1201 62.507 27.2894C61.9931 27.6879 62.3234 28.762 66.8866 33.3489C68.2834 35.0244 70.2361 36.8765 70.5335 40.7796C70.8308 44.6829 68.5537 47.7215 67.7508 49.3143C67.7567 46.7365 67.3374 43.2952 66.4449 43.5464C65.0772 43.9313 64.5683 46.9115 64.3782 52.067C64.2338 58.1933 64.1186 61.0092 64.1344 62.9317C67.6091 63.596 68.3249 53.1936 68.3249 53.1936C68.3249 53.1936 69.077 58.184 68.654 61.2573C68.4155 62.3814 68.1497 64.0924 66.6331 65.4874C64.6531 67.153 64.0427 67.4276 60.7343 67.9195C59.0781 68.1656 56.2398 67.7889 55.355 67.5713C53.0298 66.999 49.073 65.4293 48.2577 63.53C53.991 65.8834 57.4593 65.6963 59.4284 64.746C60.711 64.1271 61.3319 62.0376 61.4803 59.8378C61.8046 55.0351 61.7418 54.029 61.5487 49.1388C60.8744 45.0537 59.5449 43.4823 58.5342 43.5337C57.5232 43.5851 57.3254 47.4872 57.3096 49.6862C56.2205 49.5607 53.7336 47.1381 52.5004 44.1684C51.2674 41.1989 51.5292 38.3314 52.9718 37.4367C55.2349 36.0432 61.1327 37.9137 62.6458 40.8086C62.9311 38.9607 63.5533 38.0175 64.3865 37.586C65.2507 37.1382 66.4566 37.0016 67.8299 37.829C67.4149 34.7907 63.0432 31.3547 59.749 27.7977C57.7831 24.34 62.1843 25.4218 59.7241 23.2902C56.6318 21.3218 52.2945 19.2351 48.9805 18.2546C43.4472 16.6181 38.4799 18.891 36.8532 19.4764C36.2852 18.3373 34.6555 15.3684 33.322 15.4576C31.4605 15.5821 31.8632 18.4799 31.8632 18.4799C32.7533 21.0178 33.7552 21.1564 35.6275 21.7976Z" fill="white"/>
<path d="M46.1801 29.0708C45.5347 26.9804 39.6275 22.7622 37.7343 23.7276C35.8413 24.6931 35.8592 30.9863 38.7597 32.5977C41.0294 32.2995 44.5244 30.6773 45.3447 29.5379C44.6395 28.8547 43.2939 27.912 42.0408 28.04C42.448 29.8063 41.1323 30.1656 40.4502 30.1832C39.1455 30.0698 39.3666 28.7638 39.3116 28.1102C39.8897 28.0278 40.7526 27.6366 40.7526 27.6366C40.7526 27.6366 40.0924 27.6596 39.2592 27.2755C38.9376 26.6094 38.9159 25.4143 39.1796 24.8875C39.9452 24.2601 44.6579 27.6323 46.1801 29.0708Z" fill="white"/>
</svg>
